<svg id="visual" viewBox="0 0 900 900" width="900" height="900" xmlns="http://www.w3.org/2000/svg" xmlns:xlink="http://www.w3.org/1999/xlink" version="1.1"><g stroke-width="1" stroke-linejoin="bevel"><path d="M501.9 456.9L507.1 471.1L555.7 491.7Z" fill="#f7f7f7" stroke="#f7f7f7"></path><path d="M387.1 444.9L511.9 491.7L507.1 471.1Z" fill="#f7f7f7" stroke="#f7f7f7"></path><path d="M507.1 471.1L511.9 491.7L555.7 491.7Z" fill="#dbdbdb" stroke="#dbdbdb"></path><path d="M562.5 528.7L588.5 504.1L555.7 491.7Z" fill="#dbdbdb" stroke="#dbdbdb"></path><path d="M555.7 491.7L608.5 412.3L501.9 456.9Z" fill="#efefef" stroke="#efefef"></path><path d="M588.5 504.1L608.5 412.3L555.7 491.7Z" fill="#e7e7e7" stroke="#e7e7e7"></path><path d="M511.9 491.7L562.5 528.7L555.7 491.7Z" fill="#e3e3e3" stroke="#e3e3e3"></path><path d="M608.5 412.3L568.7 359.1L501.9 456.9Z" fill="#dfdfdf" stroke="#dfdfdf"></path><path d="M720.2 394.3L617.7 375.3L608.5 412.3Z" fill="#ebebeb" stroke="#ebebeb"></path><path d="M608.5 412.3L617.7 375.3L568.7 359.1Z" fill="#ebebeb" stroke="#ebebeb"></path><path d="M617.7 375.3L580.9 339.3L568.7 359.1Z" fill="#efefef" stroke="#efefef"></path><path d="M568.7 359.1L447.9 344.1L501.9 456.9Z" fill="#ebebeb" stroke="#ebebeb"></path><path d="M580.9 339.3L447.9 344.1L568.7 359.1Z" fill="#dbdbdb" stroke="#dbdbdb"></path><path d="M501.9 456.9L387.1 444.9L507.1 471.1Z" fill="#ffffff" stroke="#ffffff"></path><path d="M447.9 344.1L387.1 444.9L501.9 456.9Z" fill="#e7e7e7" stroke="#e7e7e7"></path><path d="M567.5 658.5L605.5 647.4L562.5 528.7Z" fill="#fbfbfb" stroke="#fbfbfb"></path><path d="M562.5 528.7L634.7 587.9L588.5 504.1Z" fill="#f7f7f7" stroke="#f7f7f7"></path><path d="M588.5 504.1L706.5 522.9L608.5 412.3Z" fill="#e7e7e7" stroke="#e7e7e7"></path><path d="M605.5 647.4L634.7 587.9L562.5 528.7Z" fill="#dbdbdb" stroke="#dbdbdb"></path><path d="M634.7 587.9L706.5 522.9L588.5 504.1Z" fill="#dbdbdb" stroke="#dbdbdb"></path><path d="M617.7 375.3L615.7 283.5L580.9 339.3Z" fill="#d7d7d7" stroke="#d7d7d7"></path><path d="M580.9 339.3L543.9 186.5L447.9 344.1Z" fill="#f3f3f3" stroke="#f3f3f3"></path><path d="M715.5 309.5L615.7 283.5L617.7 375.3Z" fill="#ffffff" stroke="#ffffff"></path><path d="M706.5 522.9L720.2 394.3L608.5 412.3Z" fill="#ffffff" stroke="#ffffff"></path><path d="M388.3 253.6L377.1 361.3L447.9 344.1Z" fill="#fbfbfb" stroke="#fbfbfb"></path><path d="M447.9 344.1L377.1 361.3L387.1 444.9Z" fill="#efefef" stroke="#efefef"></path><path d="M758.4 639.4L728.2 511.7L706.5 522.9Z" fill="#f3f3f3" stroke="#f3f3f3"></path><path d="M706.5 522.9L728.2 511.7L720.2 394.3Z" fill="#efefef" stroke="#efefef"></path><path d="M567.5 658.5L562.5 528.7L501.9 679.4Z" fill="#dbdbdb" stroke="#dbdbdb"></path><path d="M634.7 587.9L758.4 639.4L706.5 522.9Z" fill="#dfdfdf" stroke="#dfdfdf"></path><path d="M501.9 679.4L562.5 528.7L511.9 491.7Z" fill="#e7e7e7" stroke="#e7e7e7"></path><path d="M768.4 276.3L715.5 309.5L720.2 394.3Z" fill="#dfdfdf" stroke="#dfdfdf"></path><path d="M720.2 394.3L715.5 309.5L617.7 375.3Z" fill="#d7d7d7" stroke="#d7d7d7"></path><path d="M715.5 309.5L655.4 246.6L615.7 283.5Z" fill="#ebebeb" stroke="#ebebeb"></path><path d="M543.9 186.5L388.3 253.6L447.9 344.1Z" fill="#f3f3f3" stroke="#f3f3f3"></path><path d="M781.2 487.1L773.4 482.9L728.2 511.7Z" fill="#f7f7f7" stroke="#f7f7f7"></path><path d="M728.2 511.7L773.4 482.9L720.2 394.3Z" fill="#efefef" stroke="#efefef"></path><path d="M363.1 633.7L501.9 679.4L511.9 491.7Z" fill="#f3f3f3" stroke="#f3f3f3"></path><path d="M650.7 702.4L650.4 662.7L605.5 647.4Z" fill="#f3f3f3" stroke="#f3f3f3"></path><path d="M377.1 361.3L311.5 429.9L387.1 444.9Z" fill="#e7e7e7" stroke="#e7e7e7"></path><path d="M387.1 444.9L320.3 570.7L511.9 491.7Z" fill="#f3f3f3" stroke="#f3f3f3"></path><path d="M650.7 702.4L605.5 647.4L567.5 658.5Z" fill="#f7f7f7" stroke="#f7f7f7"></path><path d="M605.5 647.4L650.4 662.7L634.7 587.9Z" fill="#efefef" stroke="#efefef"></path><path d="M837.2 531.9L781.2 487.1L823.4 579.5Z" fill="#d7d7d7" stroke="#d7d7d7"></path><path d="M773.4 482.9L804.4 418.1L720.2 394.3Z" fill="#f7f7f7" stroke="#f7f7f7"></path><path d="M543.9 186.5L580.9 339.3L615.7 283.5Z" fill="#efefef" stroke="#efefef"></path><path d="M267.3 331.1L247.5 420.3L311.5 429.9Z" fill="#e7e7e7" stroke="#e7e7e7"></path><path d="M279.3 459.9L320.3 570.7L387.1 444.9Z" fill="#ffffff" stroke="#ffffff"></path><path d="M320.3 570.7L363.1 633.7L511.9 491.7Z" fill="#e7e7e7" stroke="#e7e7e7"></path><path d="M781.2 487.1L804.4 418.1L773.4 482.9Z" fill="#f7f7f7" stroke="#f7f7f7"></path><path d="M592.7 159.6L543.9 186.5L615.7 283.5Z" fill="#ebebeb" stroke="#ebebeb"></path><path d="M398.1 157.6L370.1 250.5L388.3 253.6Z" fill="#efefef" stroke="#efefef"></path><path d="M388.3 253.6L370.1 250.5L377.1 361.3Z" fill="#f3f3f3" stroke="#f3f3f3"></path><path d="M247.5 420.3L279.3 459.9L311.5 429.9Z" fill="#ffffff" stroke="#ffffff"></path><path d="M311.5 429.9L279.3 459.9L387.1 444.9Z" fill="#dfdfdf" stroke="#dfdfdf"></path><path d="M249.6 660.7L366.1 650.5L363.1 633.7Z" fill="#dfdfdf" stroke="#dfdfdf"></path><path d="M363.1 633.7L393.9 678.5L501.9 679.4Z" fill="#e3e3e3" stroke="#e3e3e3"></path><path d="M393.9 678.5L480.7 712.5L501.9 679.4Z" fill="#ebebeb" stroke="#ebebeb"></path><path d="M501.9 679.4L480.7 712.5L567.5 658.5Z" fill="#dbdbdb" stroke="#dbdbdb"></path><path d="M480.7 712.5L650.7 702.4L567.5 658.5Z" fill="#fbfbfb" stroke="#fbfbfb"></path><path d="M650.4 662.7L758.4 639.4L634.7 587.9Z" fill="#ebebeb" stroke="#ebebeb"></path><path d="M366.1 650.5L393.9 678.5L363.1 633.7Z" fill="#f3f3f3" stroke="#f3f3f3"></path><path d="M715.5 309.5L768.4 276.3L655.4 246.6Z" fill="#d7d7d7" stroke="#d7d7d7"></path><path d="M592.7 159.6L543.7 160.8L543.9 186.5Z" fill="#f7f7f7" stroke="#f7f7f7"></path><path d="M804.4 418.1L768.4 276.3L720.2 394.3Z" fill="#e3e3e3" stroke="#e3e3e3"></path><path d="M650.7 702.4L758.4 639.4L650.4 662.7Z" fill="#d7d7d7" stroke="#d7d7d7"></path><path d="M781.2 487.1L900 473.9L804.4 418.1Z" fill="#fbfbfb" stroke="#fbfbfb"></path><path d="M592.7 159.6L615.7 283.5L655.4 246.6Z" fill="#efefef" stroke="#efefef"></path><path d="M543.9 186.5L398.1 157.6L388.3 253.6Z" fill="#f7f7f7" stroke="#f7f7f7"></path><path d="M724.5 149.6L592.7 159.6L655.4 246.6Z" fill="#f7f7f7" stroke="#f7f7f7"></path><path d="M267.3 331.1L311.5 429.9L377.1 361.3Z" fill="#f3f3f3" stroke="#f3f3f3"></path><path d="M279.3 459.9L210.5 503.7L320.3 570.7Z" fill="#ebebeb" stroke="#ebebeb"></path><path d="M396.9 744.2L387.3 703.5L325.3 772.2Z" fill="#efefef" stroke="#efefef"></path><path d="M366.1 650.5L387.3 703.5L393.9 678.5Z" fill="#f7f7f7" stroke="#f7f7f7"></path><path d="M393.9 678.5L387.3 703.5L480.7 712.5Z" fill="#ebebeb" stroke="#ebebeb"></path><path d="M370.1 250.5L267.3 331.1L377.1 361.3Z" fill="#f7f7f7" stroke="#f7f7f7"></path><path d="M823.4 579.5L781.2 487.1L728.2 511.7Z" fill="#f7f7f7" stroke="#f7f7f7"></path><path d="M900 328.3L808.2 251.5L768.4 276.3Z" fill="#dbdbdb" stroke="#dbdbdb"></path><path d="M758.4 639.4L823.4 579.5L728.2 511.7Z" fill="#e7e7e7" stroke="#e7e7e7"></path><path d="M267.3 331.1L227.3 398.3L247.5 420.3Z" fill="#dfdfdf" stroke="#dfdfdf"></path><path d="M247.5 420.3L210.5 503.7L279.3 459.9Z" fill="#f7f7f7" stroke="#f7f7f7"></path><path d="M325.3 772.2L387.3 703.5L260.5 725.2Z" fill="#f3f3f3" stroke="#f3f3f3"></path><path d="M543.7 160.8L398.1 157.6L543.9 186.5Z" fill="#e3e3e3" stroke="#e3e3e3"></path><path d="M370.1 250.5L233.3 282.5L267.3 331.1Z" fill="#d7d7d7" stroke="#d7d7d7"></path><path d="M535.9 113.6L398.1 157.6L543.7 160.8Z" fill="#f7f7f7" stroke="#f7f7f7"></path><path d="M900 328.3L768.4 276.3L804.4 418.1Z" fill="#ffffff" stroke="#ffffff"></path><path d="M768.4 276.3L724.5 149.6L655.4 246.6Z" fill="#f7f7f7" stroke="#f7f7f7"></path><path d="M249.6 660.7L363.1 633.7L320.3 570.7Z" fill="#f7f7f7" stroke="#f7f7f7"></path><path d="M387.3 703.5L396.9 744.2L480.7 712.5Z" fill="#d7d7d7" stroke="#d7d7d7"></path><path d="M597.7 860.2L701.5 823.2L650.7 702.4Z" fill="#f3f3f3" stroke="#f3f3f3"></path><path d="M682.5 110.8L535.9 113.6L592.7 159.6Z" fill="#dfdfdf" stroke="#dfdfdf"></path><path d="M592.7 159.6L535.9 113.6L543.7 160.8Z" fill="#d7d7d7" stroke="#d7d7d7"></path><path d="M155.6 435.9L210.5 503.7L247.5 420.3Z" fill="#fbfbfb" stroke="#fbfbfb"></path><path d="M795.4 159.5L724.5 149.6L768.4 276.3Z" fill="#fbfbfb" stroke="#fbfbfb"></path><path d="M267.3 331.1L199.6 374.1L227.3 398.3Z" fill="#e3e3e3" stroke="#e3e3e3"></path><path d="M227.3 398.3L155.6 435.9L247.5 420.3Z" fill="#f3f3f3" stroke="#f3f3f3"></path><path d="M182.5 340.1L199.6 374.1L267.3 331.1Z" fill="#efefef" stroke="#efefef"></path><path d="M300.3 157.8L233.3 282.5L370.1 250.5Z" fill="#f7f7f7" stroke="#f7f7f7"></path><path d="M900 498.7L900 473.9L837.2 531.9Z" fill="#dfdfdf" stroke="#dfdfdf"></path><path d="M837.2 531.9L900 473.9L781.2 487.1Z" fill="#d7d7d7" stroke="#d7d7d7"></path><path d="M900 473.9L900 408.1L804.4 418.1Z" fill="#dfdfdf" stroke="#dfdfdf"></path><path d="M900 572.5L900 498.7L837.2 531.9Z" fill="#e7e7e7" stroke="#e7e7e7"></path><path d="M162.6 584.5L249.6 660.7L320.3 570.7Z" fill="#f3f3f3" stroke="#f3f3f3"></path><path d="M724.5 149.6L682.5 110.8L592.7 159.6Z" fill="#efefef" stroke="#efefef"></path><path d="M900 408.1L900 328.3L804.4 418.1Z" fill="#d7d7d7" stroke="#d7d7d7"></path><path d="M808.2 251.5L795.4 159.5L768.4 276.3Z" fill="#e7e7e7" stroke="#e7e7e7"></path><path d="M901.2 697.4L900 572.5L823.4 579.5Z" fill="#fbfbfb" stroke="#fbfbfb"></path><path d="M823.4 579.5L900 572.5L837.2 531.9Z" fill="#e7e7e7" stroke="#e7e7e7"></path><path d="M901.2 697.4L823.4 579.5L758.4 639.4Z" fill="#dbdbdb" stroke="#dbdbdb"></path><path d="M233.3 282.5L182.5 340.1L267.3 331.1Z" fill="#efefef" stroke="#efefef"></path><path d="M199.6 374.1L155.6 435.9L227.3 398.3Z" fill="#d7d7d7" stroke="#d7d7d7"></path><path d="M398.1 157.6L300.3 157.8L370.1 250.5Z" fill="#e7e7e7" stroke="#e7e7e7"></path><path d="M233.3 282.5L160.5 313.5L182.5 340.1Z" fill="#e7e7e7" stroke="#e7e7e7"></path><path d="M352.1 96.8L300.3 157.8L398.1 157.6Z" fill="#ffffff" stroke="#ffffff"></path><path d="M900 163.6L795.4 159.5L808.2 251.5Z" fill="#e7e7e7" stroke="#e7e7e7"></path><path d="M724.5 149.6L791.2 90.8L682.5 110.8Z" fill="#dfdfdf" stroke="#dfdfdf"></path><path d="M105.6 384.3L155.6 435.9L199.6 374.1Z" fill="#e3e3e3" stroke="#e3e3e3"></path><path d="M210.5 503.7L162.6 584.5L320.3 570.7Z" fill="#dfdfdf" stroke="#dfdfdf"></path><path d="M900 328.3L900 287.5L808.2 251.5Z" fill="#e7e7e7" stroke="#e7e7e7"></path><path d="M260.5 725.2L387.3 703.5L366.1 650.5Z" fill="#d7d7d7" stroke="#d7d7d7"></path><path d="M396.9 744.2L475.1 905.2L480.7 712.5Z" fill="#e3e3e3" stroke="#e3e3e3"></path><path d="M325.3 772.2L369.3 800.4L396.9 744.2Z" fill="#e7e7e7" stroke="#e7e7e7"></path><path d="M249.6 660.7L260.5 725.2L366.1 650.5Z" fill="#efefef" stroke="#efefef"></path><path d="M129.8 691.5L260.5 725.2L249.6 660.7Z" fill="#dbdbdb" stroke="#dbdbdb"></path><path d="M478.9 49.8L352.1 96.8L398.1 157.6Z" fill="#fbfbfb" stroke="#fbfbfb"></path><path d="M478.9 49.8L398.1 157.6L535.9 113.6Z" fill="#e3e3e3" stroke="#e3e3e3"></path><path d="M568.9 0L478.9 49.8L535.9 113.6Z" fill="#ffffff" stroke="#ffffff"></path><path d="M597.7 860.2L650.7 702.4L480.7 712.5Z" fill="#ebebeb" stroke="#ebebeb"></path><path d="M650.7 702.4L701.5 823.2L758.4 639.4Z" fill="#d7d7d7" stroke="#d7d7d7"></path><path d="M103.8 510.9L162.6 584.5L210.5 503.7Z" fill="#d7d7d7" stroke="#d7d7d7"></path><path d="M182.5 340.1L105.6 384.3L199.6 374.1Z" fill="#e3e3e3" stroke="#e3e3e3"></path><path d="M146.6 272.5L160.5 313.5L233.3 282.5Z" fill="#ebebeb" stroke="#ebebeb"></path><path d="M146.6 272.5L233.3 282.5L158.8 118.8Z" fill="#ffffff" stroke="#ffffff"></path><path d="M475.1 905.2L597.7 860.2L480.7 712.5Z" fill="#e3e3e3" stroke="#e3e3e3"></path><path d="M325.3 772.2L369.1 824.4L369.3 800.4Z" fill="#fbfbfb" stroke="#fbfbfb"></path><path d="M369.3 800.4L475.1 905.2L396.9 744.2Z" fill="#fbfbfb" stroke="#fbfbfb"></path><path d="M321.5 900L369.1 824.4L325.3 772.2Z" fill="#e7e7e7" stroke="#e7e7e7"></path><path d="M103.8 510.9L148.5 599.5L162.6 584.5Z" fill="#dfdfdf" stroke="#dfdfdf"></path><path d="M162.6 584.5L148.5 599.5L249.6 660.7Z" fill="#dfdfdf" stroke="#dfdfdf"></path><path d="M103.8 510.9L210.5 503.7L155.6 435.9Z" fill="#dfdfdf" stroke="#dfdfdf"></path><path d="M105.8 735.2L269.5 773.4L260.5 725.2Z" fill="#f7f7f7" stroke="#f7f7f7"></path><path d="M260.5 725.2L269.5 773.4L325.3 772.2Z" fill="#dbdbdb" stroke="#dbdbdb"></path><path d="M701.5 823.2L860.2 746.5L758.4 639.4Z" fill="#dfdfdf" stroke="#dfdfdf"></path><path d="M860.2 746.5L901.2 697.4L758.4 639.4Z" fill="#f7f7f7" stroke="#f7f7f7"></path><path d="M900 572.5L901.2 697.4L900 498.7Z" fill="#efefef" stroke="#efefef"></path><path d="M900 498.7L901.2 697.4L900 473.9Z" fill="#dbdbdb" stroke="#dbdbdb"></path><path d="M900 473.9L901.2 697.4L900 408.1Z" fill="#dfdfdf" stroke="#dfdfdf"></path><path d="M900 408.1L901.2 697.4L900 328.3Z" fill="#d7d7d7" stroke="#d7d7d7"></path><path d="M900 328.3L901.2 697.4L900 287.5Z" fill="#e7e7e7" stroke="#e7e7e7"></path><path d="M879.2 83.6L791.2 90.8L795.4 159.5Z" fill="#f3f3f3" stroke="#f3f3f3"></path><path d="M795.4 159.5L791.2 90.8L724.5 149.6Z" fill="#ebebeb" stroke="#ebebeb"></path><path d="M638.4 0L568.9 0L535.9 113.6Z" fill="#dfdfdf" stroke="#dfdfdf"></path><path d="M247.6 111.6L233.3 282.5L300.3 157.8Z" fill="#d7d7d7" stroke="#d7d7d7"></path><path d="M160.5 313.5L105.6 384.3L182.5 340.1Z" fill="#f3f3f3" stroke="#f3f3f3"></path><path d="M226.5 105.8L259.5 110.6L303.5 0Z" fill="#fbfbfb" stroke="#fbfbfb"></path><path d="M352.1 96.8L259.5 110.6L300.3 157.8Z" fill="#ebebeb" stroke="#ebebeb"></path><path d="M146.6 272.5L105.6 384.3L160.5 313.5Z" fill="#efefef" stroke="#efefef"></path><path d="M91.8 404.3L103.8 510.9L155.6 435.9Z" fill="#efefef" stroke="#efefef"></path><path d="M860.2 746.5L900 724.4L901.2 697.4Z" fill="#d7d7d7" stroke="#d7d7d7"></path><path d="M638.4 0L535.9 113.6L682.5 110.8Z" fill="#f3f3f3" stroke="#f3f3f3"></path><path d="M226.5 105.8L247.6 111.6L259.5 110.6Z" fill="#dfdfdf" stroke="#dfdfdf"></path><path d="M259.5 110.6L352.1 96.8L303.5 0Z" fill="#e7e7e7" stroke="#e7e7e7"></path><path d="M259.5 110.6L247.6 111.6L300.3 157.8Z" fill="#efefef" stroke="#efefef"></path><path d="M597.7 860.2L663.4 900L701.5 823.2Z" fill="#fbfbfb" stroke="#fbfbfb"></path><path d="M701.5 823.2L812.4 897.2L860.2 746.5Z" fill="#e3e3e3" stroke="#e3e3e3"></path><path d="M860.2 746.5L900 900L900 724.4Z" fill="#e3e3e3" stroke="#e3e3e3"></path><path d="M475.1 905.2L595.7 900L597.7 860.2Z" fill="#ebebeb" stroke="#ebebeb"></path><path d="M50.8 427.1L91.8 404.3L105.6 384.3Z" fill="#dfdfdf" stroke="#dfdfdf"></path><path d="M105.6 384.3L91.8 404.3L155.6 435.9Z" fill="#dbdbdb" stroke="#dbdbdb"></path><path d="M900 287.5L900 163.6L808.2 251.5Z" fill="#dbdbdb" stroke="#dbdbdb"></path><path d="M901.2 697.4L900 163.6L900 287.5Z" fill="#dbdbdb" stroke="#dbdbdb"></path><path d="M660.5 0L638.4 0L682.5 110.8Z" fill="#d7d7d7" stroke="#d7d7d7"></path><path d="M427.1 900L475.1 905.2L369.1 824.4Z" fill="#f7f7f7" stroke="#f7f7f7"></path><path d="M369.1 824.4L475.1 905.2L369.3 800.4Z" fill="#d7d7d7" stroke="#d7d7d7"></path><path d="M666.7 0L660.5 0L682.5 110.8Z" fill="#ffffff" stroke="#ffffff"></path><path d="M666.7 0L682.5 110.8L781.4 32.8Z" fill="#ebebeb" stroke="#ebebeb"></path><path d="M781.4 32.8L682.5 110.8L791.2 90.8Z" fill="#e7e7e7" stroke="#e7e7e7"></path><path d="M397.9 900L427.1 900L369.1 824.4Z" fill="#d7d7d7" stroke="#d7d7d7"></path><path d="M820.2 916.2L663.4 900L595.7 900Z" fill="#ebebeb" stroke="#ebebeb"></path><path d="M595.7 900L663.4 900L597.7 860.2Z" fill="#dbdbdb" stroke="#dbdbdb"></path><path d="M820.2 916.2L667.5 900L663.4 900Z" fill="#dbdbdb" stroke="#dbdbdb"></path><path d="M663.4 900L667.5 900L701.5 823.2Z" fill="#e7e7e7" stroke="#e7e7e7"></path><path d="M360.1 0L352.1 96.8L478.9 49.8Z" fill="#dfdfdf" stroke="#dfdfdf"></path><path d="M247.6 111.6L226.5 105.8L233.3 282.5Z" fill="#efefef" stroke="#efefef"></path><path d="M427.1 900L397.9 900L475.1 905.2Z" fill="#d7d7d7" stroke="#d7d7d7"></path><path d="M343.3 900L397.9 900L369.1 824.4Z" fill="#f7f7f7" stroke="#f7f7f7"></path><path d="M879.2 83.6L781.4 32.8L791.2 90.8Z" fill="#dbdbdb" stroke="#dbdbdb"></path><path d="M148.5 599.5L129.8 691.5L249.6 660.7Z" fill="#ffffff" stroke="#ffffff"></path><path d="M321.5 900L343.3 900L369.1 824.4Z" fill="#ffffff" stroke="#ffffff"></path><path d="M87.8 625.7L129.8 691.5L148.5 599.5Z" fill="#ffffff" stroke="#ffffff"></path><path d="M568.9 0L360.1 0L478.9 49.8Z" fill="#f3f3f3" stroke="#f3f3f3"></path><path d="M360.1 0L358.3 0L352.1 96.8Z" fill="#ffffff" stroke="#ffffff"></path><path d="M0 579.5L87.8 625.7L103.8 510.9Z" fill="#fbfbfb" stroke="#fbfbfb"></path><path d="M103.8 510.9L87.8 625.7L148.5 599.5Z" fill="#dfdfdf" stroke="#dfdfdf"></path><path d="M321.5 900L325.3 772.2L269.5 773.4Z" fill="#e7e7e7" stroke="#e7e7e7"></path><path d="M397.9 900L343.3 900L475.1 905.2Z" fill="#e7e7e7" stroke="#e7e7e7"></path><path d="M0 425.1L50.8 427.1L105.6 384.3Z" fill="#e7e7e7" stroke="#e7e7e7"></path><path d="M91.8 404.3L50.8 427.1L103.8 510.9Z" fill="#e7e7e7" stroke="#e7e7e7"></path><path d="M35.8 245.6L105.6 384.3L146.6 272.5Z" fill="#dfdfdf" stroke="#dfdfdf"></path><path d="M900 163.6L879.2 83.6L795.4 159.5Z" fill="#efefef" stroke="#efefef"></path><path d="M211.6 900L321.5 900L269.5 773.4Z" fill="#fbfbfb" stroke="#fbfbfb"></path><path d="M343.3 900L321.5 900L475.1 905.2Z" fill="#dfdfdf" stroke="#dfdfdf"></path><path d="M87.8 625.7L96.6 679.4L129.8 691.5Z" fill="#e7e7e7" stroke="#e7e7e7"></path><path d="M129.8 691.5L105.8 735.2L260.5 725.2Z" fill="#dbdbdb" stroke="#dbdbdb"></path><path d="M18.8 666.4L96.6 679.4L87.8 625.7Z" fill="#f3f3f3" stroke="#f3f3f3"></path><path d="M174.6 0L158.8 118.8L226.5 105.8Z" fill="#f3f3f3" stroke="#f3f3f3"></path><path d="M226.5 105.8L158.8 118.8L233.3 282.5Z" fill="#f7f7f7" stroke="#f7f7f7"></path><path d="M358.3 0L303.5 0L352.1 96.8Z" fill="#dbdbdb" stroke="#dbdbdb"></path><path d="M879.2 83.6L796.2 0L781.4 32.8Z" fill="#d7d7d7" stroke="#d7d7d7"></path><path d="M781.4 32.8L796.2 0L666.7 0Z" fill="#dbdbdb" stroke="#dbdbdb"></path><path d="M820.2 916.2L812.4 897.2L667.5 900Z" fill="#e3e3e3" stroke="#e3e3e3"></path><path d="M667.5 900L812.4 897.2L701.5 823.2Z" fill="#ebebeb" stroke="#ebebeb"></path><path d="M0 729.4L105.8 735.2L96.6 679.4Z" fill="#f3f3f3" stroke="#f3f3f3"></path><path d="M96.6 679.4L105.8 735.2L129.8 691.5Z" fill="#f7f7f7" stroke="#f7f7f7"></path><path d="M0 154.5L80.8 182.5L0 65.6Z" fill="#e3e3e3" stroke="#e3e3e3"></path><path d="M158.8 118.8L80.8 182.5L146.6 272.5Z" fill="#dfdfdf" stroke="#dfdfdf"></path><path d="M900 163.6L900 46.8L879.2 83.6Z" fill="#ffffff" stroke="#ffffff"></path><path d="M879.2 83.6L900 46.8L796.2 0Z" fill="#d7d7d7" stroke="#d7d7d7"></path><path d="M901.2 697.4L900 46.8L900 163.6Z" fill="#e3e3e3" stroke="#e3e3e3"></path><path d="M475.1 905.2L820.2 916.2L595.7 900Z" fill="#d7d7d7" stroke="#d7d7d7"></path><path d="M812.4 897.2L848.2 900L860.2 746.5Z" fill="#efefef" stroke="#efefef"></path><path d="M820.2 916.2L848.2 900L812.4 897.2Z" fill="#dfdfdf" stroke="#dfdfdf"></path><path d="M0 250.3L0 425.1L105.6 384.3Z" fill="#dbdbdb" stroke="#dbdbdb"></path><path d="M50.8 427.1L0 486.7L103.8 510.9Z" fill="#e3e3e3" stroke="#e3e3e3"></path><path d="M0 425.1L0 486.7L50.8 427.1Z" fill="#ffffff" stroke="#ffffff"></path><path d="M80.8 182.5L35.8 245.6L146.6 272.5Z" fill="#e3e3e3" stroke="#e3e3e3"></path><path d="M0 486.7L0 544.9L103.8 510.9Z" fill="#d7d7d7" stroke="#d7d7d7"></path><path d="M0 544.9L0 579.5L103.8 510.9Z" fill="#fbfbfb" stroke="#fbfbfb"></path><path d="M93.6 868.2L211.6 900L105.8 735.2Z" fill="#fbfbfb" stroke="#fbfbfb"></path><path d="M105.8 735.2L211.6 900L269.5 773.4Z" fill="#e3e3e3" stroke="#e3e3e3"></path><path d="M321.5 900L211.6 900L475.1 905.2Z" fill="#e7e7e7" stroke="#e7e7e7"></path><path d="M475.1 905.2L0 900L820.2 916.2Z" fill="#e3e3e3" stroke="#e3e3e3"></path><path d="M0 579.5L18.8 666.4L87.8 625.7Z" fill="#dbdbdb" stroke="#dbdbdb"></path><path d="M901.2 697.4L900 0L900 46.8Z" fill="#f3f3f3" stroke="#f3f3f3"></path><path d="M900 46.8L900 0L796.2 0Z" fill="#dfdfdf" stroke="#dfdfdf"></path><path d="M900 724.4L900 900L901.2 697.4Z" fill="#dfdfdf" stroke="#dfdfdf"></path><path d="M848.2 900L900 900L860.2 746.5Z" fill="#ffffff" stroke="#ffffff"></path><path d="M900 912.2L900 900L848.2 900Z" fill="#e3e3e3" stroke="#e3e3e3"></path><path d="M0 154.5L0 250.3L35.8 245.6Z" fill="#d7d7d7" stroke="#d7d7d7"></path><path d="M35.8 245.6L0 250.3L105.6 384.3Z" fill="#e7e7e7" stroke="#e7e7e7"></path><path d="M303.5 0L174.6 0L226.5 105.8Z" fill="#f7f7f7" stroke="#f7f7f7"></path><path d="M80.8 182.5L0 154.5L35.8 245.6Z" fill="#dfdfdf" stroke="#dfdfdf"></path><path d="M820.2 916.2L900 912.2L848.2 900Z" fill="#ebebeb" stroke="#ebebeb"></path><path d="M900 900L900 912.2L901.2 697.4Z" fill="#dbdbdb" stroke="#dbdbdb"></path><path d="M174.6 0L143.8 0L158.8 118.8Z" fill="#e7e7e7" stroke="#e7e7e7"></path><path d="M303.5 0L149.6 -17.2L174.6 0Z" fill="#dfdfdf" stroke="#dfdfdf"></path><path d="M174.6 0L149.6 -17.2L143.8 0Z" fill="#dfdfdf" stroke="#dfdfdf"></path><path d="M0 65.6L80.8 182.5L158.8 118.8Z" fill="#f3f3f3" stroke="#f3f3f3"></path><path d="M358.3 0L149.6 -17.2L303.5 0Z" fill="#e7e7e7" stroke="#e7e7e7"></path><path d="M360.1 0L149.6 -17.2L358.3 0Z" fill="#efefef" stroke="#efefef"></path><path d="M568.9 0L149.6 -17.2L360.1 0Z" fill="#ffffff" stroke="#ffffff"></path><path d="M638.4 0L149.6 -17.2L568.9 0Z" fill="#dfdfdf" stroke="#dfdfdf"></path><path d="M660.5 0L149.6 -17.2L638.4 0Z" fill="#dbdbdb" stroke="#dbdbdb"></path><path d="M666.7 0L149.6 -17.2L660.5 0Z" fill="#d7d7d7" stroke="#d7d7d7"></path><path d="M796.2 0L149.6 -17.2L666.7 0Z" fill="#d7d7d7" stroke="#d7d7d7"></path><path d="M900 0L149.6 -17.2L796.2 0Z" fill="#efefef" stroke="#efefef"></path><path d="M18.8 666.4L0 729.4L96.6 679.4Z" fill="#dfdfdf" stroke="#dfdfdf"></path><path d="M0 579.5L0 729.4L18.8 666.4Z" fill="#f7f7f7" stroke="#f7f7f7"></path><path d="M0 729.4L93.6 868.2L105.8 735.2Z" fill="#e3e3e3" stroke="#e3e3e3"></path><path d="M0 65.6L158.8 118.8L143.8 0Z" fill="#e3e3e3" stroke="#e3e3e3"></path><path d="M0 900L102.8 900L93.6 868.2Z" fill="#ffffff" stroke="#ffffff"></path><path d="M93.6 868.2L102.8 900L211.6 900Z" fill="#efefef" stroke="#efefef"></path><path d="M211.6 900L102.8 900L475.1 905.2Z" fill="#d7d7d7" stroke="#d7d7d7"></path><path d="M0 38.8L0 65.6L143.8 0Z" fill="#ebebeb" stroke="#ebebeb"></path><path d="M0 0L0 38.8L143.8 0Z" fill="#dfdfdf" stroke="#dfdfdf"></path><path d="M0 729.4L0 884.2L93.6 868.2Z" fill="#d7d7d7" stroke="#d7d7d7"></path><path d="M149.6 -17.2L0 0L143.8 0Z" fill="#d7d7d7" stroke="#d7d7d7"></path><path d="M0 884.2L0 900L93.6 868.2Z" fill="#ffffff" stroke="#ffffff"></path><path d="M102.8 900L0 900L475.1 905.2Z" fill="#e3e3e3" stroke="#e3e3e3"></path></g></svg>